<?xml version="1.0" encoding="UTF-8" standalone="no"?>
<svg
   version="1.1"
   width="15.831009cm"
   height="10.096666cm"
   viewBox="0 0 62326.877 39750.655"
   id="svg548"
   xmlns="http://www.w3.org/2000/svg"
   xmlns:svg="http://www.w3.org/2000/svg"
   xmlns:rdf="http://www.w3.org/1999/02/22-rdf-syntax-ns#"
   xmlns:cc="http://creativecommons.org/ns#"
   xmlns:dc="http://purl.org/dc/elements/1.1/">
  <title
     id="title347">Nez-Oba controller buttons</title>
  <metadata
     id="metadata554">
    <rdf:RDF>
      <cc:Work
         rdf:about="">
        <dc:format>image/svg+xml</dc:format>
        <dc:type
           rdf:resource="http://purl.org/dc/dcmitype/StillImage" />
        <dc:title>Nez-Oba controller buttons</dc:title>
        <cc:license
           rdf:resource="http://creativecommons.org/licenses/by-nc-sa/4.0/" />
      </cc:Work>
      <cc:License
         rdf:about="http://creativecommons.org/licenses/by-nc-sa/4.0/">
        <cc:permits
           rdf:resource="http://creativecommons.org/ns#Reproduction" />
        <cc:permits
           rdf:resource="http://creativecommons.org/ns#Distribution" />
        <cc:requires
           rdf:resource="http://creativecommons.org/ns#Notice" />
        <cc:requires
           rdf:resource="http://creativecommons.org/ns#Attribution" />
        <cc:prohibits
           rdf:resource="http://creativecommons.org/ns#CommercialUse" />
        <cc:permits
           rdf:resource="http://creativecommons.org/ns#DerivativeWorks" />
        <cc:requires
           rdf:resource="http://creativecommons.org/ns#ShareAlike" />
      </cc:License>
    </rdf:RDF>
  </metadata>
  <defs
     id="defs552" />
  <desc
     id="desc4">Picture generated by PCBNEW </desc>
  <rect
     style="fill:#666666;stroke:none;stroke-width:590.552"
     id="case"
     width="62326.887"
     height="39750.703"
     x="1.1641532e-10"
     y="-0.023081897" />
  <path
     id="button14"
     style="fill:#fff6d5;stroke:none;stroke-width:477.596"
     d="m 11443.067,1414.2368 v 2789.513 h 3114.424 v -2789.513 z" />
  <path
     id="button13"
     style="fill:#fff6d5;stroke:none;stroke-width:441.734"
     d="m 6786.4864,1414.2368 v 2789.513 h 3114.424 v -2789.513 z" />
  <path
     id="button12"
     style="fill:#fff6d5;stroke:none;stroke-width:477.596"
     d="m 2676.9844,1414.2368 v 2789.513 h 3114.424 v -2789.513 z" />
  <path
     id="rect557"
     style="fill:#fff6d5;stroke:none;stroke-width:574.458"
     d="M 53156.132,774.96073 V 5257.9988 h 7624.963 V 774.96073 Z" />
  <path
     id="button04"
     style="fill:#fff6d5;stroke:none;stroke-width:639.54"
     d="m 34003.516,15697.293 -6016.648,2182.009 2165.326,6003.832 6036.791,-2163.292 z" />
  <path
     id="button03"
     style="fill:#fff6d5;stroke:none;stroke-width:639.54"
     d="m 18339.844,30713.993 -2200.524,5991.014 6015.021,2223.31 2197.065,-6018.48 z" />
  <path
     id="button01"
     style="fill:#fff6d5;stroke:none;stroke-width:590.552"
     d="m 11114.29,11975.772 -2200.5226,5991.014 6015.0206,2223.31 2197.065,-6018.48 z" />
  <path
     id="button00"
     style="fill:#fff6d5;stroke:none;stroke-width:384.459"
     d="M 4074.4884,9389.5058 1873.9644,15380.521 7888.9854,17603.83 10086.05,11585.35 Z" />
  <path
     id="button02"
     style="fill:#fff6d5;stroke:none;stroke-width:639.54"
     d="m 18184.408,14532.945 -2200.524,5990.81 6014.818,2223.31 2197.268,-6018.48 z" />
  <path
     id="button05"
     style="fill:#fff6d5;stroke:none;stroke-width:639.54"
     d="m 41022.181,13093.007 -6016.649,2182.009 2165.327,6003.832 6036.79,-2163.088 z" />
  <path
     id="button06"
     style="fill:#fff6d5;stroke:none;stroke-width:639.54"
     d="m 48066.643,10542.868 -6016.649,2182.213 2165.327,6003.628 6036.79,-2163.088 z" />
  <path
     id="button07"
     style="fill:#fff6d5;stroke:none;stroke-width:639.54"
     d="m 55111.329,8007.2618 -6016.649,2182.0092 2165.326,6003.832 6036.791,-2163.089 z" />
  <path
     id="button09"
     style="fill:#fff6d5;stroke:none;stroke-width:639.54"
     d="m 39945.907,21432.773 -6016.65,2182.213 2165.326,6003.628 6036.792,-2163.088 z" />
  <path
     id="button10"
     style="fill:#fff6d5;stroke:none;stroke-width:639.54"
     d="m 46951.347,18877.094 -6016.649,2182.213 2165.326,6003.832 6036.791,-2163.292 z" />
  <path
     id="button11"
     style="fill:#fff6d5;stroke:none;stroke-width:639.54"
     d="m 53974.06,16282.889 -6016.649,2182.213 2165.326,6003.628 6036.791,-2163.088 z" />
  <path
     id="button08"
     style="fill:#fff6d5;stroke:none;stroke-width:639.54"
     d="m 32845.699,23982.899 -5802.009,2104.291 -212.809,83.008 2163.495,5998.542 6036.791,-2163.088 z m 1970.624,2091.677 43.335,119.833 2.848,-1.425 z" />
  <rect
     style="fill:#fff6d5;stroke-width:590.552"
     id="rect585"
     width="1385.0417"
     height="3531.8567"
     x="53605.508"
     y="1250.55" />
  <rect
     style="fill:#fff6d5;stroke-width:590.552"
     id="rect639"
     width="1385.0417"
     height="3531.8567"
     x="55390.938"
     y="1250.55" />
  <rect
     style="fill:#fff6d5;stroke-width:590.552"
     id="rect641"
     width="1385.0417"
     height="3531.8567"
     x="57156.867"
     y="1250.55" />
  <rect
     style="fill:#fff6d5;stroke-width:590.552"
     id="rect643"
     width="1385.0417"
     height="3531.8567"
     x="58992.047"
     y="1250.55" />
  <rect
     style="fill:#666666;stroke-width:376.1"
     id="cfg1-high"
     width="1385.0409"
     height="1181.1036"
     x="53605.508"
     y="1250.55" />
  <rect
     style="fill:#666666;stroke-width:376.1"
     id="cfg2-high"
     width="1385.0409"
     height="1181.1036"
     x="55390.945"
     y="1250.55" />
  <rect
     style="fill:#666666;stroke-width:376.1"
     id="cfg3-high"
     width="1385.0409"
     height="1181.1036"
     x="57156.875"
     y="1250.55" />
  <rect
     style="fill:#666666;stroke-width:376.1"
     id="cfg4-high"
     width="1385.0409"
     height="1181.1036"
     x="58992.055"
     y="1250.55" />
  <rect
     style="fill:#666666;stroke-width:376.1"
     id="cfg1-low"
     width="1385.0409"
     height="1181.1036"
     x="53605.508"
     y="3601.3032" />
  <rect
     style="fill:#666666;stroke-width:376.1"
     id="cfg2-low"
     width="1385.0409"
     height="1181.1036"
     x="55390.945"
     y="3601.3032" />
  <rect
     style="fill:#666666;stroke-width:376.1"
     id="cfg3-low"
     width="1385.0409"
     height="1181.1036"
     x="57156.875"
     y="3601.3032" />
  <rect
     style="fill:#666666;stroke-width:376.1"
     id="cfg4-low"
     width="1385.0409"
     height="1181.1036"
     x="58992.055"
     y="3601.3032" />
  <rect
     style="fill:#ff0000;stroke-width:162.095;stroke-dasharray:162.095, 324.191"
     id="bb00"
     width="5148.8569"
     height="4309.5474"
     x="3479.9758"
     y="11205.345" />
  <rect
     style="fill:#ff0000;stroke-width:162.095;stroke-dasharray:162.095, 324.191"
     id="bb01"
     width="5148.8569"
     height="4309.5474"
     x="10511.825"
     y="13712.753" />
  <rect
     style="fill:#ff0000;stroke-width:162.095;stroke-dasharray:162.095, 324.191"
     id="bb02"
     width="5148.8569"
     height="4309.5474"
     x="17523.412"
     y="16486.684" />
  <rect
     style="fill:#ff0000;stroke-width:162.095;stroke-dasharray:162.095, 324.191"
     id="bb03"
     width="5148.8569"
     height="4309.5474"
     x="17621.604"
     y="32705.154" />
  <rect
     style="fill:#ff0000;stroke-width:162.095;stroke-dasharray:162.095, 324.191"
     id="bb04"
     width="5148.8569"
     height="4309.5474"
     x="29579.818"
     y="17749.738" />
  <rect
     style="fill:#ff0000;stroke-width:162.095;stroke-dasharray:162.095, 324.191"
     id="bb05"
     width="5148.8569"
     height="4309.5474"
     x="36576.797"
     y="15143.554" />
  <rect
     style="fill:#ff0000;stroke-width:162.095;stroke-dasharray:162.095, 324.191"
     id="bb06"
     width="5148.8569"
     height="4309.5474"
     x="43673.523"
     y="12639.652" />
  <rect
     style="fill:#ff0000;stroke-width:162.095;stroke-dasharray:162.095, 324.191"
     id="bb07"
     width="5148.8569"
     height="4309.5474"
     x="50671.668"
     y="10106.332" />
  <rect
     style="fill:#ff0000;stroke-width:162.095;stroke-dasharray:162.095, 324.191"
     id="bb08"
     width="5148.8569"
     height="4309.5474"
     x="28373.461"
     y="25923.461" />
  <rect
     style="fill:#ff0000;stroke-width:162.095;stroke-dasharray:162.095, 324.191"
     id="bb09"
     width="5148.8569"
     height="4309.5474"
     x="35441.355"
     y="23320.004" />
  <rect
     style="fill:#ff0000;stroke-width:162.095;stroke-dasharray:162.095, 324.191"
     id="bb10"
     width="5148.8569"
     height="4309.5474"
     x="42433.266"
     y="20667.061" />
  <rect
     style="fill:#ff0000;stroke-width:162.095;stroke-dasharray:162.095, 324.191"
     id="bb11"
     width="5148.8569"
     height="4309.5474"
     x="49497.066"
     y="18194.916" />
</svg>
